<svg width="152" height="38" viewBox="0 0 152 38" version="1.1" xmlns="http://www.w3.org/2000/svg" xmlns:xlink="http://www.w3.org/1999/xlink">
<title>Whitecat</title>
<desc>Created using Figma</desc>
<g id="Canvas" transform="translate(194 13)">
<g id="Whitecat">
<use xlink:href="#path0_fill" transform="translate(-205 -22)"/>
</g>
</g>
<defs>
<path id="path0_fill" d="M 45.0234 16.3281C 45.0234 17.0938 45.2031 17.7812 45.5625 18.3906C 46.5469 20.0938 48.6719 20.9453 51.9375 20.9453C 52.1875 19.6172 52.3125 18.4453 52.3125 17.4297C 52.3125 16.7266 52.2109 16.0625 52.0078 15.4375C 51.4453 13.7969 50.3594 12.9766 48.75 12.9766C 47.9688 12.9766 47.2578 13.1641 46.6172 13.5391C 45.5547 14.1797 45.0234 15.1094 45.0234 16.3281ZM 22.1016 9.55469C 22.4141 9.55469 22.7109 9.63281 22.9922 9.78906C 23.6172 10.1484 23.9453 10.6797 23.9766 11.3828C 23.3203 16.5078 22.8125 20.5312 22.4531 23.4531C 21.5625 30.5938 21.1172 34.6406 21.1172 35.5938C 21.1172 39.5469 22.1328 41.5312 24.1641 41.5469C 25.8516 41.5469 27.5156 41.1719 29.1562 40.4219C 28.5781 38.1094 28.2891 35.875 28.2891 33.7188C 28.2891 31.7812 28.4062 30.0625 28.6406 28.5625C 29.4688 23.4062 31.6484 20.8281 35.1797 20.8281C 36.6172 20.8281 37.8359 21.2578 38.8359 22.1172C 40.1641 23.2734 40.8281 24.8984 40.8281 26.9922C 40.8281 27.5391 40.8047 28.0938 40.7578 28.6562C 40.4297 32.2031 39.1641 35.5469 36.9609 38.6875C 35.9141 40.1875 35 41.1875 34.2188 41.6875C 34.3438 42.0938 34.7812 42.2969 35.5312 42.2969C 38.9219 42.2812 42.0781 40.4297 45 36.7422C 47.4688 33.6016 49.4922 29.5703 51.0703 24.6484C 48.2266 24.5234 45.9453 23.7734 44.2266 22.3984C 42.2266 20.7891 41.2266 18.5625 41.2266 15.7188C 41.2422 13.7656 42.0234 12.1094 43.5703 10.75C 44.9297 9.59375 46.4453 9.01562 48.1172 9.01562C 50.2891 9.01562 52.1016 9.71875 53.5547 11.125C 55.1953 12.7344 56.0156 14.875 56.0156 17.5469C 56.0156 18.1562 55.9609 19.1406 55.8516 20.5C 56.1953 20.4219 56.5391 20.3203 56.8828 20.1953C 57.7266 19.9141 58.7734 19.3828 60.0234 18.6016C 60.9141 18.0391 61.6484 17.7578 62.2266 17.7578C 62.4766 17.7578 62.7109 17.8203 62.9297 17.9453C 63.5234 18.2891 63.8203 18.8125 63.8203 19.5156C 63.8047 20.4688 63.0312 21.3984 61.5 22.3047C 59.6875 23.3672 57.5156 24.0703 54.9844 24.4141C 53.5625 29.7734 51.4922 34.3125 48.7734 38.0312C 44.8672 43.375 40.2031 46.0469 34.7812 46.0469C 34.6562 46.0469 34.5156 46.0391 34.3594 46.0234C 32.8906 45.9141 31.6484 45.2812 30.6328 44.125C 28.3984 45.2969 25.9922 45.8828 23.4141 45.8828C 22.0078 45.8828 20.8281 45.4609 19.875 44.6172C 18.0781 43.0234 17.1797 40.1328 17.1797 35.9453C 17.1797 33.1016 17.5625 29.3906 18.3281 24.8125C 19.0625 20.3438 19.5078 17.1953 19.6641 15.3672C 18.1172 16.3516 16.8906 17.1172 15.9844 17.6641C 14.4531 18.6016 13.5469 19.0703 13.2656 19.0703C 12.9219 19.0703 12.5859 18.9766 12.2578 18.7891C 11.6484 18.3984 11.3438 17.8516 11.3438 17.1484C 11.3594 16.4922 11.7344 15.9062 12.4688 15.3906C 12.5469 15.3281 12.7266 15.2031 13.0078 15.0156C 18.3047 11.375 21.3359 9.55469 22.1016 9.55469ZM 32.4609 37.9844C 32.9609 37.5938 33.4844 37.0312 34.0312 36.2969C 35.8594 33.8125 36.7734 30.9219 36.7734 27.625C 36.7734 27.4844 36.7656 27.3438 36.75 27.2031C 36.6719 25.9219 36.0781 25.2812 34.9688 25.2812C 34.1406 25.2969 33.4531 26.0625 32.9062 27.5781C 32.3125 29.3438 32.0156 31.5 32.0156 34.0469C 32.0156 35 32.1641 36.3125 32.4609 37.9844ZM 61.8047 43.4922L 65.7891 12.9297C 66.0234 11.1172 66.6719 10.2031 67.7344 10.1875C 67.9844 10.1875 68.2188 10.2187 68.4375 10.2812C 69.0312 10.5 69.3281 11.1562 69.3281 12.25C 69.3281 13.5937 68.6797 19.3047 67.3828 29.3828C 68.5391 27.3516 70.1875 26.3281 72.3281 26.3125C 73.0938 26.3125 73.8047 26.5547 74.4609 27.0391C 75.3984 27.7266 75.8672 28.6406 75.8672 29.7812C 75.8672 29.9531 75.8672 30.3906 75.8672 31.0938C 75.8516 32.7031 75.8438 33.9766 75.8438 34.9141C 75.8438 38.1484 75.9297 40.0234 76.1016 40.5391C 76.1328 40.6484 76.1719 40.7656 76.2188 40.8906C 76.6875 42.125 77.3125 42.7422 78.0938 42.7422C 78.25 42.7422 78.4141 42.7266 78.5859 42.6953C 79.0391 42.5859 79.7031 42.2188 80.5781 41.5938C 81.4375 40.9688 82.125 40.6562 82.6406 40.6562C 82.8281 40.6562 83.0156 40.7109 83.2031 40.8203C 83.7031 41.1172 83.9531 41.5859 83.9531 42.2266C 83.9531 42.2734 83.9453 42.3359 83.9297 42.4141C 83.8203 43.1641 83.1719 43.9453 81.9844 44.7578C 80.5312 45.7266 79.0938 46.2109 77.6719 46.2109C 77.1094 46.2109 76.5781 46.1406 76.0781 46C 73.4844 45.2344 72.1875 42.5469 72.1875 37.9375C 72.1875 37.5469 72.2031 36.9375 72.2344 36.1094C 72.2812 35.125 72.3047 34.3594 72.3047 33.8125C 72.3047 31.5 72.1016 30.3281 71.6953 30.2969C 71.6172 30.2969 71.5312 30.3125 71.4375 30.3438C 70.5469 30.6875 69.4141 32.4375 68.0391 35.5938C 66.8359 38.4062 66.0625 40.7734 65.7188 42.6953C 65.6562 43.0078 65.625 43.25 65.625 43.4219C 65.5781 43.9844 65.4219 44.4922 65.1562 44.9453C 64.7188 45.6953 64.1641 46.0703 63.4922 46.0703C 63.3047 46.0703 63.1172 46.0312 62.9297 45.9531C 62.1797 45.6406 61.8047 44.9141 61.8047 43.7734L 61.8047 43.4922ZM 85.7109 27.8359C 85.7109 28.2891 85.6328 29.2656 85.4766 30.7656C 84.9922 35.2031 84.75 37.9609 84.75 39.0391C 84.75 39.7578 84.8984 40.4297 85.1953 41.0547C 85.6328 41.9922 86.2188 42.4609 86.9531 42.4609C 87.1094 42.4609 87.2734 42.4453 87.4453 42.4141C 87.8984 42.3047 88.5547 41.9375 89.4141 41.3125C 90.2578 40.6875 90.9375 40.375 91.4531 40.375C 91.6719 40.375 91.8906 40.4531 92.1094 40.6094C 92.5469 40.9219 92.7656 41.3359 92.7656 41.8516C 92.7031 42.6484 92.0859 43.4922 90.9141 44.3828C 89.4766 45.3828 87.9688 45.8828 86.3906 45.8828C 85.0625 45.8828 83.9609 45.4219 83.0859 44.5C 81.7734 43.0938 81.1172 40.8594 81.1172 37.7969C 81.1172 36.75 81.3281 34.7031 81.75 31.6562C 81.9375 30.2344 82.0703 29.1875 82.1484 28.5156C 82.1641 28.375 82.1797 28.2344 82.1953 28.0938C 82.4453 26.5312 83.0859 25.75 84.1172 25.75C 84.2891 25.75 84.4609 25.7656 84.6328 25.7969C 85.3516 25.9688 85.7109 26.6484 85.7109 27.8359ZM 83.0391 21.6953C 83.0391 21.4141 83.1016 21.1484 83.2266 20.8984C 83.5391 20.2891 84.0469 19.9844 84.75 19.9844C 85.0312 19.9844 85.2969 20.0469 85.5469 20.1719C 86.1562 20.4844 86.4609 20.9922 86.4609 21.6953C 86.4609 21.9766 86.3984 22.2422 86.2734 22.4922C 85.9609 23.1016 85.4531 23.4062 84.75 23.4062C 84.4688 23.4062 84.2031 23.3438 83.9531 23.2188C 83.3438 22.9062 83.0391 22.3984 83.0391 21.6953ZM 90.8906 20.0547C 90.9062 20.0547 90.9844 20.0547 91.125 20.0547C 92 20.0859 92.7891 20.1016 93.4922 20.1016L 94.5234 12.8594C 94.5859 12.375 94.6641 11.9688 94.7578 11.6406C 95.0391 10.6094 95.6094 10.0938 96.4688 10.0938C 96.6406 10.0938 96.8125 10.1094 96.9844 10.1406C 97.7031 10.3125 98.0625 10.9922 98.0625 12.1797C 98.0625 12.5547 97.75 15.1953 97.125 20.1016L 99.5859 20.1016C 100.008 20.1016 100.375 20.1875 100.688 20.3594C 101.234 20.6875 101.508 21.1719 101.508 21.8125C 101.508 22.0938 101.438 22.3594 101.297 22.6094C 100.938 23.2031 100.352 23.5 99.5391 23.5L 96.6328 23.5C 95.4141 32.875 94.8047 38.1328 94.8047 39.2734C 94.8047 39.9922 94.9531 40.6641 95.25 41.2891C 95.6875 42.2266 96.2656 42.6953 96.9844 42.6953C 97.1562 42.6953 97.3359 42.6719 97.5234 42.625C 97.9453 42.5156 98.5469 42.1562 99.3281 41.5469C 100.094 40.9375 100.734 40.6328 101.25 40.6328C 101.469 40.6328 101.68 40.6797 101.883 40.7734C 102.445 41.0547 102.727 41.4844 102.727 42.0625C 102.68 42.875 102.078 43.7188 100.922 44.5938C 99.5156 45.6094 98.0234 46.1172 96.4453 46.1172C 94.8984 46.1016 93.6328 45.4531 92.6484 44.1719C 91.6484 42.8125 91.1484 41.1016 91.1484 39.0391C 91.1484 38.5859 91.7656 33.4062 93 23.5L 90.8906 23.5C 90.7969 23.5 90.7031 23.5 90.6094 23.5C 89.5312 23.4062 88.9922 22.8438 88.9922 21.8125C 88.9922 21.5312 89.0391 21.2734 89.1328 21.0391C 89.4141 20.3828 90 20.0547 90.8906 20.0547ZM 100.547 38.8281C 100.547 38.2969 100.578 37.7344 100.641 37.1406C 100.969 34.4688 101.812 32.0938 103.172 30.0156C 104.828 27.4688 106.82 26.1953 109.148 26.1953C 109.773 26.1953 110.375 26.2734 110.953 26.4297C 113.016 27.0234 114.047 28.4766 114.047 30.7891C 114.047 30.9609 114.039 31.1406 114.023 31.3281C 113.867 33.4219 112.93 35.1797 111.211 36.6016C 109.523 38.0078 107.562 38.7109 105.328 38.7109C 104.906 38.7109 104.492 38.6719 104.086 38.5938C 104.055 38.8281 104.039 39.1562 104.039 39.5781C 104.039 40.4844 104.195 41.1875 104.508 41.6875C 104.93 42.3281 105.797 42.7031 107.109 42.8125C 107.688 42.8125 108.258 42.75 108.82 42.625C 109.805 42.3906 110.969 41.8359 112.312 40.9609C 113.188 40.3828 113.805 40.0938 114.164 40.0938C 114.367 40.0938 114.578 40.1562 114.797 40.2812C 115.297 40.5781 115.547 41.0078 115.547 41.5703C 115.547 41.7578 115.508 41.9609 115.43 42.1797C 115.008 43.1953 113.742 44.1562 111.633 45.0625C 109.68 45.9062 107.961 46.3281 106.477 46.3281C 105.914 46.3281 105.391 46.2812 104.906 46.1875C 102 45.5938 100.547 43.1406 100.547 38.8281ZM 108.07 29.875C 106.648 30.8281 105.531 32.6406 104.719 35.3125C 105.109 35.4062 105.484 35.4531 105.844 35.4531C 107.141 35.4531 108.273 35.0547 109.242 34.2578C 110.32 33.3828 110.859 32.3438 110.859 31.1406C 110.859 29.9375 110.477 29.3281 109.711 29.3125C 109.164 29.3281 108.617 29.5156 108.07 29.875ZM 114.984 38.4297C 114.984 37.8984 115.016 37.3359 115.078 36.7422C 115.406 34.0703 116.25 31.6953 117.609 29.6172C 119.281 27.0703 121.281 25.7969 123.609 25.7969C 123.922 25.7969 124.258 25.8203 124.617 25.8672C 126.273 26.1016 127.133 26.7031 127.195 27.6719C 127.18 28.4219 126.516 28.8203 125.203 28.8672L 124.406 28.8672C 124.109 28.8672 123.82 28.9062 123.539 28.9844C 122.102 29.4062 120.883 30.7109 119.883 32.8984C 118.961 34.9141 118.5 36.9453 118.5 38.9922C 118.5 40.0391 118.68 40.8281 119.039 41.3594C 119.461 41.9531 120.305 42.3047 121.57 42.4141C 122.117 42.4141 122.664 42.3516 123.211 42.2266C 124.211 42.0078 125.391 41.4531 126.75 40.5625C 127.641 39.9844 128.266 39.6953 128.625 39.6953C 128.844 39.6953 129.062 39.7656 129.281 39.9062C 129.766 40.2188 130.008 40.6562 130.008 41.2188C 130.008 41.3906 129.969 41.5781 129.891 41.7812C 129.484 42.7031 128.344 43.6094 126.469 44.5C 124.438 45.4531 122.562 45.9297 120.844 45.9297C 116.969 45.9141 115.016 43.4141 114.984 38.4297ZM 130.148 38.6406C 130.148 38.1094 130.18 37.5469 130.242 36.9531C 130.57 34.2656 131.414 31.8828 132.773 29.8047C 134.43 27.2734 136.422 26.0078 138.75 26.0078C 139.75 26.0078 140.625 26.2031 141.375 26.5938C 141.688 26.2188 142.117 26.0234 142.664 26.0078C 142.977 26.0078 143.172 26.0312 143.25 26.0781C 143.922 26.2969 144.258 26.9609 144.258 28.0703C 144.258 28.5234 144.18 29.5 144.023 31C 143.539 35.4375 143.297 38.1953 143.297 39.2734C 143.297 39.9922 143.445 40.6641 143.742 41.2891C 144.18 42.2266 144.758 42.6953 145.477 42.6953C 145.617 42.6953 145.766 42.6797 145.922 42.6484C 146.391 42.5547 147.062 42.1953 147.938 41.5703C 148.797 40.9453 149.484 40.6328 150 40.6328C 150.203 40.6328 150.414 40.7031 150.633 40.8438C 151.086 41.1562 151.312 41.5703 151.312 42.0859C 151.266 42.8984 150.648 43.7422 149.461 44.6172C 148.039 45.6172 146.531 46.1172 144.938 46.1172C 142.969 46.1016 141.516 45.1094 140.578 43.1406C 140.359 43.4062 140.109 43.6719 139.828 43.9375C 138.281 45.3906 136.711 46.1172 135.117 46.1172C 134.117 46.1172 133.25 45.8594 132.516 45.3438C 130.938 44.1875 130.148 41.9531 130.148 38.6406ZM 140.461 30.9297C 140.461 30.9297 140.516 30.3984 140.625 29.3359C 140.281 29.1641 139.922 29.0781 139.547 29.0781C 139.266 29.0781 138.977 29.1172 138.68 29.1953C 137.227 29.6016 136 30.9453 135 33.2266C 134.109 35.2734 133.664 37.3281 133.664 39.3906C 133.664 39.4688 133.664 39.5469 133.664 39.625C 133.711 41.5312 134.195 42.4844 135.117 42.4844C 135.602 42.4688 136.195 42.2031 136.898 41.6875C 137.617 41.1719 138.141 40.6875 138.469 40.2344C 138.672 39.9375 138.945 39.0703 139.289 37.6328C 139.914 34.9609 140.305 32.7266 140.461 30.9297ZM 150.844 20.0547C 150.859 20.0547 150.938 20.0547 151.078 20.0547C 151.953 20.0859 152.742 20.1016 153.445 20.1016L 154.477 12.8594C 154.539 12.375 154.617 11.9688 154.711 11.6406C 154.992 10.6094 155.562 10.0938 156.422 10.0938C 156.594 10.0938 156.766 10.1094 156.938 10.1406C 157.656 10.3125 158.016 10.9922 158.016 12.1797C 158.016 12.5547 157.703 15.1953 157.078 20.1016L 159.539 20.1016C 159.961 20.1016 160.328 20.1875 160.641 20.3594C 161.188 20.6875 161.461 21.1719 161.461 21.8125C 161.461 22.0938 161.391 22.3594 161.25 22.6094C 160.891 23.2031 160.305 23.5 159.492 23.5L 156.586 23.5C 155.367 32.875 154.758 38.1328 154.758 39.2734C 154.758 39.9922 154.906 40.6641 155.203 41.2891C 155.641 42.2266 156.219 42.6953 156.938 42.6953C 157.109 42.6953 157.289 42.6719 157.477 42.625C 157.898 42.5156 158.5 42.1562 159.281 41.5469C 160.047 40.9375 160.688 40.6328 161.203 40.6328C 161.422 40.6328 161.633 40.6797 161.836 40.7734C 162.398 41.0547 162.68 41.4844 162.68 42.0625C 162.633 42.875 162.031 43.7188 160.875 44.5938C 159.469 45.6094 157.977 46.1172 156.398 46.1172C 154.852 46.1016 153.586 45.4531 152.602 44.1719C 151.602 42.8125 151.102 41.1016 151.102 39.0391C 151.102 38.5859 151.719 33.4062 152.953 23.5L 150.844 23.5C 150.75 23.5 150.656 23.5 150.562 23.5C 149.484 23.4062 148.945 22.8438 148.945 21.8125C 148.945 21.5312 148.992 21.2734 149.086 21.0391C 149.367 20.3828 149.953 20.0547 150.844 20.0547Z"/>
</defs>
</svg>
